<svg id="Capa_1" enable-background="new 0 0 512 512" height="512" viewBox="0 0 512 512" width="512" xmlns="http://www.w3.org/2000/svg"><g><path d="m417.25 7.5h-30v437h30c16.569 0 30-13.431 30-30v-377c0-16.569-13.431-30-30-30z" fill="#8b9bbd"/><path d="m417.25 414.5v-60l-97.5-158.5 97.5-158.5c0-16.569-13.431-30-30-30h-165c-16.569 0-30 13.431-30 30v377c0 16.569 13.431 30 30 30h165c16.569 0 30-13.431 30-30z" fill="#a0b4de"/><path d="m387.25 37.5-67.5 158.5 67.5 158.5h30v-317z" fill="#54ecd3"/><path d="m222.25 37.5h165v317h-165z" fill="#93faec"/><path d="m349.75 384.5h-60v30h60c8.284 0 15-6.716 15-15s-6.716-15-15-15z" fill="#8b9bbd"/><path d="m289.75 67.5h-30v437h30c16.569 0 30-13.431 30-30v-377c0-16.569-13.431-30-30-30z" fill="#77839d"/><path d="m289.75 474.5v-377c0-16.569-13.431-30-30-30h-165c-16.569 0-30 13.431-30 30v377c0 16.569 13.431 30 30 30h165c16.569 0 30-13.431 30-30z" fill="#8b9bbd"/><path d="m94.75 202.5v-60c0-24.853 20.147-45 45-45s45 20.147 45 45v60c0 24.853-20.147 45-45 45s-45-20.147-45-45z" fill="#626a7c"/><circle cx="139.75" cy="142.5" fill="#93faec" r="15"/><path d="m417.25 0h-195c-20.678 0-37.5 16.822-37.5 37.5v22.5h-90c-20.678 0-37.5 16.822-37.5 37.5v377c0 20.678 16.822 37.5 37.5 37.5h195c20.678 0 37.5-16.822 37.5-37.5v-22.5h90c20.678 0 37.5-16.822 37.5-37.5v-377c0-20.678-16.822-37.5-37.5-37.5zm-105 474.5c0 12.407-10.093 22.5-22.5 22.5h-195c-12.407 0-22.5-10.093-22.5-22.5v-377c0-12.407 10.093-22.5 22.5-22.5h195c12.407 0 22.5 10.093 22.5 22.5zm15-82.5h22.5c4.136 0 7.5 3.364 7.5 7.5s-3.364 7.5-7.5 7.5h-22.5zm112.5 22.5c0 12.407-10.093 22.5-22.5 22.5h-90v-15h22.5c12.407 0 22.5-10.093 22.5-22.5s-10.093-22.5-22.5-22.5h-22.5v-15h90c4.142 0 7.5-3.358 7.5-7.5v-143.5c0-4.142-3.358-7.5-7.5-7.5s-7.5 3.358-7.5 7.5v136h-82.5v-249.5c0-20.678-16.822-37.5-37.5-37.5h-60v-15h180v136c0 4.142 3.358 7.5 7.5 7.5s7.5-3.358 7.5-7.5v-143.5c0-4.142-3.358-7.5-7.5-7.5h-195c-4.142 0-7.5 3.358-7.5 7.5v22.5h-15v-22.5c0-12.407 10.093-22.5 22.5-22.5h195c12.407 0 22.5 10.093 22.5 22.5z"/><path d="m139.75 90c-28.949 0-52.5 23.551-52.5 52.5v60c0 28.949 23.551 52.5 52.5 52.5s52.5-23.551 52.5-52.5v-60c0-28.949-23.551-52.5-52.5-52.5zm37.5 112.5c0 20.678-16.822 37.5-37.5 37.5s-37.5-16.822-37.5-37.5v-60c0-20.678 16.822-37.5 37.5-37.5s37.5 16.822 37.5 37.5z"/><path d="m139.75 120c-12.407 0-22.5 10.093-22.5 22.5s10.093 22.5 22.5 22.5 22.5-10.093 22.5-22.5-10.093-22.5-22.5-22.5zm0 30c-4.136 0-7.5-3.364-7.5-7.5s3.364-7.5 7.5-7.5 7.5 3.364 7.5 7.5-3.364 7.5-7.5 7.5z"/><circle cx="139.75" cy="217.5" r="7.5"/><circle cx="139.75" cy="187.5" r="7.5"/></g></svg>